<svg width="437" height="331" viewBox="0 0 437 331" fill="none" xmlns="http://www.w3.org/2000/svg">
<path d="M212.546 309.526L25.1821 198.24C19.2171 194.87 14.1042 189.347 19.9163 185.724L207.946 76.8206C210.765 75.0639 215.048 73.9111 217.921 75.5909L414.571 190.302C420.536 193.783 421.607 203.477 415.663 206.991L237.236 309.328C233.493 311.515 229.247 312.683 224.917 312.718C220.587 312.752 216.324 311.652 212.546 309.526Z" fill="#FFB3A6"/>
<path style="mix-blend-mode:multiply" d="M294.035 237.908L323.817 254.52C323.817 254.52 295.991 276.566 283.504 281.88L253.689 264.039" fill="url(#paint0_linear)"/>
<path style="mix-blend-mode:multiply" d="M295.248 171.495L325.03 188.106C325.03 188.106 317.896 199.448 305.365 204.718L273.18 186.877" fill="url(#paint1_linear)"/>
<path style="mix-blend-mode:multiply" d="M134.159 236.997C134.159 236.997 98.1611 216.74 97.9426 216.4L153.868 188.106L185.321 206.354L134.159 236.997Z" fill="url(#paint2_linear)"/>
<path d="M92.8624 154.279L47.196 182.726C46.7773 182.986 46.4334 183.351 46.1981 183.786C45.9627 184.22 45.8442 184.709 45.8541 185.203C45.864 185.697 46.0021 186.181 46.2547 186.605C46.5072 187.03 46.8656 187.38 47.2943 187.623L116.602 226.984C117.566 227.542 118.659 227.835 119.771 227.835C120.883 227.835 121.975 227.542 122.939 226.984L168.398 200.129C171.675 197.406 170.78 193.365 168.398 192.048L99.4939 154.191C98.4844 153.601 97.3341 153.297 96.1661 153.312C94.998 153.328 93.8561 153.662 92.8624 154.279Z" fill="#EC4343"/>
<path d="M92.8625 152.325L47.196 180.772C46.7773 181.032 46.4334 181.397 46.1981 181.831C45.9627 182.266 45.8442 182.754 45.8541 183.249C45.864 183.743 46.0021 184.226 46.2547 184.651C46.5072 185.075 46.8656 185.426 47.2943 185.669L116.592 225.062C117.555 225.62 118.648 225.914 119.76 225.914C120.872 225.914 121.964 225.62 122.928 225.062L168.387 198.207C168.92 197.896 169.362 197.45 169.67 196.914C169.977 196.377 170.139 195.769 170.139 195.149C170.139 194.53 169.977 193.922 169.67 193.385C169.362 192.849 168.92 192.403 168.387 192.092L99.483 152.281C98.4787 151.686 97.3326 151.376 96.1667 151.383C95.0008 151.391 93.8589 151.717 92.8625 152.325Z" fill="white"/>
<path d="M95.8997 153.862L50.0037 182.891L118.646 222.362L166.005 194.375L95.8997 153.862Z" fill="#606060"/>
<path d="M145.335 210.295C144.436 210.295 143.707 209.951 143.707 209.527C143.707 209.102 144.436 208.758 145.335 208.758C146.234 208.758 146.963 209.102 146.963 209.527C146.963 209.951 146.234 210.295 145.335 210.295Z" fill="#383097"/>
<path style="mix-blend-mode:multiply" d="M94.2063 201.973C94.2063 201.973 88.2303 190.807 88.1976 190.752L89.2245 190.236L101.919 197.603L94.2063 201.973Z" fill="url(#paint3_linear)"/>
<path d="M40.5318 160.79C40.5474 160.71 40.5474 160.628 40.5318 160.548C41.1551 160.221 41.8262 159.995 42.5201 159.879L85.1276 185.438C85.1276 185.438 87.684 187.448 82.9426 190.159L39.6905 164.325C39.7321 163.102 40.0182 161.9 40.5318 160.79Z" fill="#CCCCCC"/>
<path d="M85.215 185.427C85.215 185.427 90.1749 191.005 90.2623 191.367C90.3497 191.729 83.0846 190.148 83.0846 190.148" fill="#CCCCCC"/>
<path d="M39.8468 164.334C39.063 163.879 39.0121 162.493 39.7331 161.238C40.4542 159.983 41.6741 159.334 42.4579 159.789C43.2417 160.244 43.2926 161.63 42.5716 162.885C41.8505 164.14 40.6306 164.789 39.8468 164.334Z" fill="#F2F2F2"/>
<path d="M255.853 149.778L237.957 158.44C237.285 158.767 236.714 159.271 236.304 159.899C235.895 160.527 235.664 161.255 235.634 162.005C235.605 162.755 235.78 163.499 236.139 164.157C236.498 164.816 237.028 165.363 237.673 165.742L280.095 190.61C281.012 191.147 282.1 191.307 283.132 191.057C284.164 190.808 285.06 190.168 285.634 189.27L295.936 173.185" fill="#56403D"/>
<path d="M353.227 108.122L210.481 25.4816C209.502 24.9123 208.391 24.6123 207.26 24.6121C206.128 24.6118 205.017 24.9112 204.038 25.4802C203.058 26.0491 202.246 26.8674 201.681 27.8527C201.117 28.8379 200.821 29.9552 200.823 31.092L200.823 117.06C200.824 118.003 201.072 118.93 201.542 119.747C202.011 120.564 202.687 121.243 203.5 121.715L355.652 209.977C356.178 210.282 356.773 210.442 357.379 210.442C357.986 210.442 358.581 210.281 359.106 209.976C359.631 209.671 360.067 209.233 360.37 208.705C360.672 208.177 360.832 207.578 360.831 206.969L360.831 121.33C360.827 118.652 360.123 116.022 358.788 113.704C357.453 111.385 355.536 109.461 353.227 108.122Z" fill="#EC4343"/>
<path d="M210.503 31.9814L348.901 112.009C350.379 112.864 351.607 114.096 352.461 115.58C353.314 117.065 353.763 118.749 353.762 120.463L353.762 184.911C353.761 185.528 353.598 186.133 353.291 186.666C352.984 187.2 352.544 187.643 352.013 187.952C351.482 188.261 350.881 188.424 350.267 188.426C349.654 188.428 349.051 188.269 348.518 187.964L207.367 106.563C206.84 106.26 206.402 105.822 206.097 105.294C205.792 104.766 205.631 104.166 205.63 103.555L205.63 34.8469C205.632 34.274 205.783 33.7116 206.068 33.2151C206.352 32.7187 206.76 32.3053 207.252 32.016C207.744 31.7266 208.303 31.5712 208.873 31.5652C209.443 31.5591 210.005 31.7025 210.503 31.9814Z" fill="white"/>
<path d="M265.147 150.685C264.787 148.809 265.817 147.033 267.446 146.718C269.075 146.403 270.688 147.668 271.047 149.543C271.406 151.419 270.377 153.195 268.748 153.51C267.118 153.825 265.506 152.561 265.147 150.685Z" fill="#AB643C"/>
<path d="M203.467 186.942L166.126 208.385C165.735 208.611 165.411 208.937 165.186 209.329C164.961 209.721 164.842 210.166 164.842 210.619C164.842 211.072 164.961 211.517 165.186 211.909C165.411 212.301 165.735 212.627 166.126 212.853L269.847 272.822C271.105 273.551 272.531 273.934 273.983 273.934C275.434 273.934 276.86 273.551 278.118 272.822L313.078 252.543C313.484 252.307 313.821 251.968 314.055 251.559C314.289 251.151 314.413 250.687 314.413 250.216C314.413 249.744 314.289 249.281 314.055 248.873C313.821 248.464 313.484 248.125 313.078 247.888L208.132 186.964C207.426 186.547 206.622 186.326 205.803 186.322C204.983 186.318 204.178 186.532 203.467 186.942Z" fill="#974C26"/>
<path d="M259.895 221.132L249.232 227.478L257.142 232.1C259.327 230.794 265.772 226.995 267.837 225.776L259.895 221.132Z" fill="white"/>
<path d="M248.216 214.314L237.553 220.66L247.571 226.512C249.319 225.491 255.776 221.659 258.267 220.188L248.216 214.314Z" fill="white"/>
<path d="M205.783 189.556L194.957 195.803L204.593 201.424C206.122 200.535 212.655 196.659 215.288 195.1L205.783 189.556Z" fill="white"/>
<path d="M228.595 202.829L217.932 209.175L225.842 213.787C227.71 212.689 234.145 208.879 236.537 207.463L228.595 202.829Z" fill="white"/>
<path d="M216.916 196.044L206.253 202.39L216.315 208.242C217.495 207.561 224.203 203.587 227.011 201.918L216.916 196.044Z" fill="white"/>
<path d="M269.465 226.72L258.802 233.066L266.373 237.458C268.646 236.119 275.048 232.331 277.069 231.134L269.465 226.72Z" fill="white"/>
<path d="M238.165 208.451L227.502 214.797L235.882 219.683C237.848 218.585 244.261 214.731 246.577 213.359L238.165 208.451Z" fill="white"/>
<path d="M278.697 232.111L268.034 238.457L278.052 244.309C280.15 243.079 286.541 239.292 288.748 237.985L278.697 232.111Z" fill="white"/>
<path d="M290.386 238.929L279.724 245.275L297.695 255.76L308.533 249.513L290.386 238.929Z" fill="white"/>
<path d="M193.569 197.658L182.742 203.905L196.737 212.074C198.573 210.976 205.008 207.188 207.433 205.75L193.569 197.658Z" fill="white"/>
<path d="M220.751 213.512L210.088 219.858L217.997 224.481C220.117 223.24 226.508 219.452 228.693 218.156L220.751 213.512Z" fill="white"/>
<path d="M240.35 224.964L229.687 231.31L239.705 237.162C241.716 235.987 248.118 232.188 250.401 230.837L240.35 224.964Z" fill="white"/>
<path d="M230.321 219.101L219.658 225.447L228.037 230.332C230.222 229.048 236.635 225.249 238.733 224.008L230.321 219.101Z" fill="white"/>
<path d="M252.051 231.782L241.388 238.128L249.298 242.75C251.745 241.312 258.18 237.491 259.993 236.426L252.051 231.782Z" fill="white"/>
<path d="M261.621 237.37L250.958 243.716L258.529 248.108C261.02 246.648 267.466 242.816 269.225 241.784L261.621 237.37Z" fill="white"/>
<path d="M209.072 206.694L198.409 213.04L208.427 218.881C210.011 217.959 216.533 214.094 219.123 212.557L209.072 206.694Z" fill="white"/>
<path d="M270.853 242.761L260.19 249.107L270.208 254.959C272.524 253.597 278.948 249.799 280.904 248.635L270.853 242.761Z" fill="white"/>
<path d="M271.88 255.925L285.492 263.863L296.319 257.616L282.542 249.568L271.88 255.925Z" fill="white"/>
<path d="M263.904 254.838L255.973 259.57L265.172 264.917L273.223 260.273L263.904 254.838Z" fill="white"/>
<path d="M267.073 266.026L274.895 270.582L282.958 265.949L274.993 261.305L267.073 266.026Z" fill="white"/>
<path d="M180.219 205.991L171.916 210.614L181.333 216.103L189.483 211.393L180.219 205.991Z" fill="white"/>
<path d="M191.242 212.425L183.234 217.201L193.285 223.064L201.424 218.365L191.242 212.425Z" fill="white"/>
<path d="M203.194 219.397L195.197 224.173L254.061 258.45L262.134 253.795L203.194 219.397Z" fill="white"/>
<path style="mix-blend-mode:multiply" d="M176.919 118.289L192.214 127.369C192.214 127.369 187.495 135.691 175.827 140.61L158.063 131.014" fill="url(#paint4_linear)"/>
<path d="M164.52 131.761C156.706 131.761 150.372 127.278 150.372 121.748C150.372 116.218 156.706 111.735 164.52 111.735C172.333 111.735 178.667 116.218 178.667 121.748C178.667 127.278 172.333 131.761 164.52 131.761Z" fill="#EC4343"/>
<path d="M164.509 120.189C158.656 120.189 153.911 118.237 153.911 115.83C153.911 113.423 158.656 111.471 164.509 111.471C170.361 111.471 175.106 113.423 175.106 115.83C175.106 118.237 170.361 120.189 164.509 120.189Z" fill="#974C26"/>
<path d="M163.809 115.929C162.979 114.754 162.138 113.524 161.264 112.141C160.171 110.373 159.079 108.573 158.128 106.706C157.235 105.056 156.471 103.338 155.845 101.568C155.149 99.6451 154.59 97.6748 154.174 95.672C154.064 95.145 153.977 94.5741 153.879 94.091C153.879 93.8494 153.879 93.8714 153.879 93.9043C153.879 93.9373 153.879 93.7396 153.879 93.4432C153.78 92.3453 153.715 91.2473 153.704 90.2153C153.655 86.4814 154.373 82.7775 155.812 79.3349C159.637 84.91 162.217 91.2511 163.372 97.9227C163.445 98.318 163.514 98.7169 163.58 99.1195C163.58 99.1195 163.689 99.8441 163.733 100.141L163.842 101.14C163.893 101.645 163.941 102.153 163.984 102.666C164.137 104.631 164.214 106.596 164.203 108.562C164.115 111.021 164.006 113.48 163.809 115.929ZM159.308 86.5482C159.053 86.2554 158.788 85.97 158.511 85.6918C158.567 85.9449 158.567 86.2073 158.511 86.4604C158.776 86.4462 159.042 86.4759 159.297 86.5482H159.308Z" fill="#999A1C"/>
<path d="M163.536 116.093C163.46 114.655 163.427 113.162 163.438 111.526C163.438 109.429 163.536 107.343 163.722 105.257C163.857 103.382 164.138 101.521 164.563 99.6904C165.01 97.6928 165.597 95.7298 166.322 93.8165C166.519 93.3114 166.715 92.8174 166.934 92.3233C167.032 92.0927 167.01 92.1147 166.989 92.1476L167.207 91.7414C167.71 90.7862 168.223 89.842 168.791 88.9307C170.764 85.7586 173.368 83.03 176.439 80.9159C176.661 87.6901 175.419 94.4323 172.801 100.679C172.648 101.052 172.491 101.418 172.331 101.776L171.905 102.721L171.457 103.632C171.231 104.086 170.998 104.54 170.758 104.993C169.829 106.728 168.835 108.419 167.775 110.077C166.442 112.152 165.022 114.15 163.536 116.093ZM175.554 88.9307C175.496 88.5428 175.426 88.1768 175.346 87.8328C175.273 88.0807 175.146 88.3093 174.975 88.5025C175.189 88.6189 175.384 88.767 175.554 88.9417V88.9307Z" fill="#999A1C"/>
<path d="M163.471 116.862C163.897 116.06 164.356 115.248 164.88 114.359C165.557 113.261 166.278 112.163 167.065 111.065C167.75 110.099 168.51 109.188 169.337 108.342C170.221 107.408 171.171 106.538 172.178 105.74L172.943 105.114C173.074 105.026 173.052 105.026 173.03 105.037L173.281 104.884C173.86 104.532 174.439 104.192 175.04 103.884C177.119 102.811 179.395 102.179 181.726 102.029C179.671 105.752 176.839 108.985 173.423 111.504L172.812 111.954L172.287 112.327L171.752 112.668L170.933 113.173C169.876 113.81 168.784 114.403 167.655 114.952C166.311 115.665 164.902 116.291 163.471 116.862ZM178.678 106.102C178.773 105.875 178.86 105.645 178.941 105.411C178.822 105.521 178.68 105.603 178.525 105.652C178.599 105.793 178.651 105.945 178.678 106.102Z" fill="#999A1C"/>
<path d="M163.809 115.929C162.979 114.754 162.138 113.524 161.264 112.141C160.171 110.373 159.079 108.573 158.128 106.706C157.235 105.056 156.471 103.338 155.845 101.568C155.149 99.6451 154.59 97.6748 154.174 95.672C154.064 95.145 153.977 94.5741 153.879 94.091C153.879 93.8494 153.879 93.8714 153.879 93.9043C153.879 93.9373 153.879 93.7396 153.879 93.4432C153.78 92.3453 153.715 91.2473 153.704 90.2153C153.655 86.4814 154.373 82.7775 155.812 79.3349C159.637 84.91 162.217 91.2511 163.372 97.9227C163.445 98.318 163.514 98.7169 163.58 99.1195C163.58 99.1195 163.689 99.8441 163.733 100.141L163.842 101.14C163.893 101.645 163.941 102.153 163.984 102.666C164.137 104.631 164.214 106.596 164.203 108.562C164.115 111.021 164.006 113.48 163.809 115.929ZM159.308 86.5482C159.053 86.2554 158.788 85.97 158.511 85.6918C158.567 85.9449 158.567 86.2073 158.511 86.4604C158.776 86.4462 159.042 86.4759 159.297 86.5482H159.308Z" fill="#999A1C"/>
<path d="M163.536 116.093C163.46 114.655 163.427 113.162 163.438 111.526C163.438 109.429 163.536 107.343 163.722 105.257C163.857 103.382 164.138 101.521 164.563 99.6904C165.01 97.6928 165.597 95.7298 166.322 93.8165C166.519 93.3114 166.715 92.8174 166.934 92.3233C167.032 92.0927 167.01 92.1147 166.989 92.1476L167.207 91.7414C167.71 90.7862 168.223 89.842 168.791 88.9307C170.764 85.7586 173.368 83.03 176.439 80.9159C176.661 87.6901 175.419 94.4323 172.801 100.679C172.648 101.052 172.491 101.418 172.331 101.776L171.905 102.721L171.457 103.632C171.231 104.086 170.998 104.54 170.758 104.993C169.829 106.728 168.835 108.419 167.775 110.077C166.442 112.152 165.022 114.15 163.536 116.093ZM175.554 88.9307C175.496 88.5428 175.426 88.1768 175.346 87.8328C175.273 88.0807 175.146 88.3093 174.975 88.5025C175.189 88.6189 175.384 88.767 175.554 88.9417V88.9307Z" fill="#999A1C"/>
<path d="M163.471 116.862C163.897 116.06 164.356 115.248 164.88 114.359C165.557 113.261 166.278 112.163 167.065 111.065C167.75 110.099 168.51 109.188 169.337 108.342C170.221 107.408 171.171 106.538 172.178 105.74L172.943 105.114C173.074 105.026 173.052 105.026 173.03 105.037L173.281 104.884C173.86 104.532 174.439 104.192 175.04 103.884C177.119 102.811 179.395 102.179 181.726 102.029C179.671 105.752 176.839 108.985 173.423 111.504L172.812 111.954L172.287 112.327L171.752 112.668L170.933 113.173C169.876 113.81 168.784 114.403 167.655 114.952C166.311 115.665 164.902 116.291 163.471 116.862ZM178.678 106.102C178.773 105.875 178.86 105.645 178.941 105.411C178.822 105.521 178.68 105.603 178.525 105.652C178.599 105.793 178.651 105.945 178.678 106.102Z" fill="#999A1C"/>
<path d="M323.686 159.769L273.223 132.793L303.507 103.731L323.686 159.769Z" fill="#E88831"/>
<path d="M233.904 96.0233C223.297 96.0233 214.698 87.3817 214.698 76.7218C214.698 66.0619 223.297 57.4203 233.904 57.4203C244.511 57.4203 253.11 66.0619 253.11 76.7218C253.11 87.3817 244.511 96.0233 233.904 96.0233Z" fill="#7ACC92"/>
<path d="M334.305 121.836C337.364 120.079 340.117 124.822 337.058 126.579C327.564 132.068 335.168 144.014 342.237 147.439C345.405 148.965 342.641 153.708 339.483 152.182C328.449 146.835 321.195 129.268 334.305 121.836Z" fill="#56403D"/>
<path d="M246.905 108.408C249.811 94.7607 268.089 103.138 264.909 115.511C263.533 120.869 257.721 123.987 252.695 121.33C250.498 120.064 248.756 118.133 247.716 115.812C246.676 113.492 246.392 110.9 246.905 108.408ZM252.171 111.833C252.287 112.847 252.655 113.815 253.241 114.648C253.827 115.48 254.612 116.151 255.525 116.598C259.698 118.201 259.6 112.876 258.573 110.329C256.737 105.608 251.275 106.212 252.193 111.877L252.171 111.833Z" fill="#56403D"/>
<path d="M255.361 283.779C255.249 283.069 254.966 282.398 254.535 281.823C254.105 281.249 253.54 280.79 252.892 280.486L244.971 275.896L232.735 268.771L218.118 260.262L202.56 251.215L187.517 242.432L174.407 234.823L164.738 229.202L159.658 226.248C159.658 226.358 159.483 226.358 159.374 226.325C158.771 226.177 158.14 226.188 157.542 226.356C156.944 226.525 156.399 226.845 155.96 227.286C155.521 227.727 155.202 228.275 155.035 228.876C154.867 229.476 154.857 230.111 155.004 230.717C155.594 233.022 157.549 235.054 159.374 236.459C165.289 240.727 171.463 244.621 177.859 248.119V245.824C173.555 243.453 164.268 238.139 160.379 234.076L162.236 235.174L167.349 238.183L175.051 242.706L184.665 248.349L195.557 254.794L206.985 261.503L218.303 268.145L228.835 274.337L237.87 279.684L244.829 283.768C246.949 285.02 249.254 286.711 251.723 287.194C252.189 287.227 252.657 287.163 253.097 287.007C253.537 286.85 253.941 286.604 254.282 286.283C254.624 285.963 254.896 285.575 255.081 285.144C255.267 284.714 255.362 284.249 255.361 283.779Z" fill="#EC4343"/>
<path style="mix-blend-mode:multiply" d="M193.438 166.708L209.76 176.479C209.76 176.479 199.043 186.8 186.555 192.081L171.38 182.123" fill="url(#paint5_linear)"/>
<path d="M195 159.736V167.41L171.413 182.09L143.096 164.699V158.155" fill="#E54C3C"/>
<path d="M143.096 158.155L167.142 143.695L195 159.736L170.954 174.415L143.096 158.155Z" fill="#F5604B"/>
<defs>
<linearGradient id="paint0_linear" x1="258.999" y1="234.922" x2="301.193" y2="269.093" gradientUnits="userSpaceOnUse">
<stop stop-color="#D4A397"/>
<stop offset="1" stop-color="white"/>
</linearGradient>
<linearGradient id="paint1_linear" x1="-7415.14" y1="5196.51" x2="-6337.32" y2="6565.67" gradientUnits="userSpaceOnUse">
<stop stop-color="#D4A397"/>
<stop offset="1" stop-color="white"/>
</linearGradient>
<linearGradient id="paint2_linear" x1="129.057" y1="192.761" x2="150.538" y2="224.25" gradientUnits="userSpaceOnUse">
<stop offset="0.01" stop-color="#4D4D4D"/>
<stop offset="1" stop-color="white"/>
</linearGradient>
<linearGradient id="paint3_linear" x1="-4251.17" y1="2196.3" x2="-4181.19" y2="2316.82" gradientUnits="userSpaceOnUse">
<stop offset="0.01" stop-color="#4D4D4D"/>
<stop offset="1" stop-color="white"/>
</linearGradient>
<linearGradient id="paint4_linear" x1="166.562" y1="119.804" x2="181.951" y2="136.582" gradientUnits="userSpaceOnUse">
<stop stop-color="#78B46A"/>
<stop offset="0.03" stop-color="#7F3500"/>
<stop offset="1" stop-color="white"/>
</linearGradient>
<linearGradient id="paint5_linear" x1="-9012.47" y1="3986.11" x2="-8484.24" y2="4636.66" gradientUnits="userSpaceOnUse">
<stop stop-color="#D4A397"/>
<stop offset="1" stop-color="white"/>
</linearGradient>
</defs>
</svg>
