<svg width="499" height="376" viewBox="0 0 499 376" fill="none" xmlns="http://www.w3.org/2000/svg">
<path d="M346.718 183.336C346.387 183.336 346.07 183.204 345.836 182.97C345.602 182.736 345.47 182.419 345.47 182.088V177.1C345.47 176.769 345.602 176.452 345.836 176.218C346.07 175.984 346.387 175.852 346.718 175.852C347.049 175.852 347.366 175.984 347.6 176.218C347.834 176.452 347.965 176.769 347.965 177.1V182.088C347.965 182.419 347.834 182.736 347.6 182.97C347.366 183.204 347.049 183.336 346.718 183.336Z" fill="#DFEAEF"/>
<path d="M346.718 194.685C346.387 194.685 346.07 194.554 345.836 194.32C345.602 194.086 345.47 193.769 345.47 193.438V188.449C345.47 188.118 345.602 187.801 345.836 187.567C346.07 187.333 346.387 187.202 346.718 187.202C347.049 187.202 347.366 187.333 347.6 187.567C347.834 187.801 347.965 188.118 347.965 188.449V193.438C347.965 193.769 347.834 194.086 347.6 194.32C347.366 194.554 347.049 194.685 346.718 194.685Z" fill="#DFEAEF"/>
<path d="M354.914 186.491H349.924C349.593 186.491 349.276 186.359 349.042 186.126C348.808 185.892 348.676 185.574 348.676 185.244C348.676 184.913 348.808 184.596 349.042 184.362C349.276 184.128 349.593 183.997 349.924 183.997H354.914C355.245 183.997 355.562 184.128 355.796 184.362C356.03 184.596 356.161 184.913 356.161 185.244C356.161 185.574 356.03 185.892 355.796 186.126C355.562 186.359 355.245 186.491 354.914 186.491Z" fill="#DFEAEF"/>
<path d="M343.561 186.491H338.572C338.241 186.491 337.923 186.359 337.689 186.126C337.455 185.892 337.324 185.574 337.324 185.244C337.324 184.913 337.455 184.596 337.689 184.362C337.923 184.128 338.241 183.997 338.572 183.997H343.561C343.892 183.997 344.21 184.128 344.444 184.362C344.678 184.596 344.809 184.913 344.809 185.244C344.809 185.574 344.678 185.892 344.444 186.126C344.21 186.359 343.892 186.491 343.561 186.491Z" fill="#DFEAEF"/>
<path d="M284.168 85.0196C283.837 85.0196 283.52 84.8882 283.286 84.6543C283.052 84.4204 282.921 84.1032 282.921 83.7724V78.7836C282.921 78.4529 283.052 78.1356 283.286 77.9017C283.52 77.6678 283.837 77.5364 284.168 77.5364C284.499 77.5364 284.816 77.6678 285.05 77.9017C285.284 78.1356 285.416 78.4529 285.416 78.7836V83.7724C285.416 84.1032 285.284 84.4204 285.05 84.6543C284.816 84.8882 284.499 85.0196 284.168 85.0196Z" fill="#DFEAEF"/>
<path d="M284.168 96.3815C283.837 96.3815 283.52 96.2501 283.286 96.0162C283.052 95.7823 282.921 95.4651 282.921 95.1343V90.0832C282.921 89.7524 283.052 89.4352 283.286 89.2013C283.52 88.9674 283.837 88.836 284.168 88.836C284.499 88.836 284.816 88.9674 285.05 89.2013C285.284 89.4352 285.416 89.7524 285.416 90.0832V95.1343C285.416 95.4651 285.284 95.7823 285.05 96.0162C284.816 96.2501 284.499 96.3815 284.168 96.3815Z" fill="#DFEAEF"/>
<path d="M292.364 88.2248H287.374C287.043 88.2248 286.726 88.0934 286.492 87.8596C286.258 87.6257 286.127 87.3084 286.127 86.9777C286.127 86.6469 286.258 86.3297 286.492 86.0958C286.726 85.8619 287.043 85.7305 287.374 85.7305H292.364C292.695 85.7305 293.012 85.8619 293.246 86.0958C293.48 86.3297 293.612 86.6469 293.612 86.9777C293.612 87.3084 293.48 87.6257 293.246 87.8596C293.012 88.0934 292.695 88.2248 292.364 88.2248Z" fill="#DFEAEF"/>
<path d="M281.012 88.2248H276.022C275.691 88.2248 275.374 88.0934 275.14 87.8596C274.906 87.6257 274.774 87.3084 274.774 86.9777C274.774 86.6469 274.906 86.3297 275.14 86.0958C275.374 85.8619 275.691 85.7305 276.022 85.7305H281.012C281.343 85.7305 281.66 85.8619 281.894 86.0958C282.128 86.3297 282.259 86.6469 282.259 86.9777C282.259 87.3084 282.128 87.6257 281.894 87.8596C281.66 88.0934 281.343 88.2248 281.012 88.2248Z" fill="#DFEAEF"/>
<path d="M355.151 147.504C354.82 147.504 354.503 147.372 354.269 147.138C354.035 146.905 353.903 146.587 353.903 146.257V136.977C353.903 136.647 354.035 136.329 354.269 136.096C354.503 135.862 354.82 135.73 355.151 135.73C355.482 135.73 355.799 135.862 356.033 136.096C356.267 136.329 356.398 136.647 356.398 136.977V146.257C356.398 146.587 356.267 146.905 356.033 147.138C355.799 147.372 355.482 147.504 355.151 147.504Z" fill="#DFEAEF"/>
<path d="M359.779 142.864H350.547C350.217 142.864 349.899 142.733 349.665 142.499C349.431 142.265 349.3 141.948 349.3 141.617C349.3 141.286 349.431 140.969 349.665 140.735C349.899 140.501 350.217 140.37 350.547 140.37H359.816C360.147 140.37 360.465 140.501 360.699 140.735C360.932 140.969 361.064 141.286 361.064 141.617C361.064 141.948 360.932 142.265 360.699 142.499C360.465 142.733 360.147 142.864 359.816 142.864H359.779Z" fill="#DFEAEF"/>
<path d="M246.977 300.723L321.136 254.106C326.286 250.869 327.836 244.071 324.598 238.922L233.726 94.4317C230.488 89.2828 223.688 87.7332 218.537 90.9706L144.379 137.587C139.229 140.824 137.679 147.623 140.917 152.772L231.789 297.262C235.027 302.411 241.827 303.96 246.977 300.723Z" fill="#093F68"/>
<path d="M241.142 303.677C239.065 303.682 237.02 303.159 235.2 302.158C233.38 301.156 231.845 299.709 230.738 297.952L139.857 153.465C138.997 152.104 138.414 150.587 138.142 149C137.869 147.413 137.913 145.788 138.27 144.218C138.627 142.648 139.29 141.164 140.222 139.851C141.153 138.538 142.335 137.422 143.7 136.566L217.863 89.9335C220.617 88.2078 223.943 87.6443 227.112 88.3668C230.281 89.0892 233.034 91.0386 234.767 93.7873L325.66 238.274C327.394 241.02 327.967 244.342 327.254 247.511C326.54 250.679 324.599 253.435 321.855 255.174L247.691 301.806C245.731 303.04 243.459 303.69 241.142 303.677ZM224.375 90.5571C222.542 90.5518 220.746 91.0711 219.198 92.0537L145.034 138.674C143.948 139.355 143.007 140.244 142.265 141.289C141.523 142.335 140.994 143.516 140.709 144.766C140.424 146.016 140.389 147.31 140.604 148.574C140.82 149.837 141.282 151.046 141.965 152.131L232.846 296.618C234.227 298.809 236.422 300.362 238.948 300.938C241.474 301.513 244.125 301.063 246.319 299.686L320.483 253.066C321.568 252.383 322.508 251.494 323.248 250.448C323.989 249.402 324.517 248.22 324.801 246.971C325.085 245.721 325.119 244.427 324.903 243.164C324.686 241.901 324.223 240.693 323.539 239.609L232.659 95.1093C231.778 93.7101 230.555 92.558 229.106 91.7616C227.657 90.9652 226.029 90.5507 224.375 90.5571Z" fill="#093F68"/>
<path d="M257.747 292.487L332.206 246.071C337.377 242.847 338.956 236.043 335.731 230.873L245.249 85.7972C242.025 80.6274 235.219 79.0496 230.048 82.2731L155.589 128.689C150.417 131.913 148.839 138.717 152.064 143.887L242.545 288.963C245.77 294.133 252.576 295.711 257.747 292.487Z" fill="#EC4343"/>
<path d="M252.694 296.418C250.615 296.421 248.571 295.895 246.751 294.892C244.931 293.889 243.396 292.44 242.289 290.681L151.409 146.194C150.549 144.832 149.967 143.314 149.696 141.727C149.424 140.14 149.469 138.514 149.827 136.944C150.185 135.374 150.85 133.89 151.783 132.578C152.716 131.265 153.899 130.149 155.264 129.295L229.415 82.6749C232.17 80.9452 235.499 80.3795 238.671 81.1021C241.843 81.8247 244.598 83.7765 246.331 86.5287L337.212 231.016C338.925 233.764 339.482 237.078 338.76 240.235C338.037 243.392 336.095 246.135 333.357 247.865L259.193 294.485L258.532 293.437L259.193 294.485C257.253 295.731 254.999 296.401 252.694 296.418ZM235.927 83.2361C234.095 83.237 232.3 83.7559 230.75 84.7327L156.586 131.365C155.499 132.046 154.557 132.934 153.814 133.979C153.071 135.024 152.541 136.206 152.256 137.457C151.971 138.707 151.936 140.001 152.152 141.265C152.369 142.529 152.832 143.738 153.517 144.822L244.41 289.309C245.789 291.499 247.982 293.053 250.505 293.628C253.029 294.203 255.678 293.753 257.871 292.377L332.035 245.745C334.225 244.366 335.779 242.174 336.355 239.651C336.93 237.128 336.48 234.48 335.103 232.288L244.211 87.8507C243.532 86.764 242.645 85.823 241.6 85.0821C240.555 84.3413 239.373 83.8156 238.123 83.5354C237.405 83.3495 236.668 83.249 235.927 83.2361Z" fill="#093F68"/>
<path d="M246.444 271.977L318.565 226.642C321.259 224.948 322.07 221.391 320.376 218.697L248.329 104.14C246.635 101.446 243.077 100.635 240.382 102.329L168.262 147.664C165.567 149.358 164.756 152.915 166.451 155.609L238.498 270.166C240.192 272.86 243.75 273.671 246.444 271.977Z" fill="white"/>
<path d="M243.387 274.131C242.202 274.134 241.035 273.835 239.996 273.264C238.957 272.692 238.081 271.866 237.449 270.863L165.381 156.296C164.891 155.518 164.56 154.65 164.406 153.744C164.252 152.837 164.278 151.909 164.483 151.012C164.688 150.116 165.068 149.268 165.601 148.519C166.134 147.769 166.81 147.132 167.589 146.643L239.72 101.295C241.292 100.309 243.191 99.9858 245.001 100.397C246.811 100.809 248.384 101.921 249.375 103.49L321.443 218.057C322.426 219.632 322.745 221.531 322.331 223.339C321.917 225.148 320.804 226.72 319.235 227.711L247.105 273.071C245.991 273.768 244.702 274.136 243.387 274.131ZM243.437 102.705C242.589 102.707 241.758 102.949 241.042 103.403L168.911 148.751C168.408 149.066 167.971 149.478 167.627 149.963C167.283 150.448 167.038 150.996 166.907 151.575C166.776 152.155 166.761 152.755 166.863 153.341C166.965 153.926 167.182 154.486 167.502 154.987L239.52 269.541C240.161 270.554 241.178 271.271 242.347 271.535C243.517 271.799 244.743 271.589 245.758 270.951L317.888 225.603C318.392 225.288 318.829 224.876 319.172 224.391C319.516 223.906 319.761 223.358 319.892 222.778C320.023 222.199 320.038 221.599 319.936 221.013C319.834 220.428 319.617 219.868 319.298 219.367L247.267 104.825C246.953 104.322 246.541 103.887 246.058 103.545C245.574 103.202 245.026 102.959 244.448 102.829C244.117 102.745 243.778 102.703 243.437 102.705Z" fill="#093F68"/>
<path d="M214.071 109.415C215.049 109.415 215.842 108.622 215.842 107.644C215.842 106.666 215.049 105.873 214.071 105.873C213.093 105.873 212.3 106.666 212.3 107.644C212.3 108.622 213.093 109.415 214.071 109.415Z" fill="#093F68"/>
<path d="M182.921 128.472C182.649 128.473 182.385 128.385 182.168 128.222C181.95 128.059 181.792 127.829 181.718 127.568C181.643 127.307 181.655 127.029 181.753 126.775C181.851 126.522 182.029 126.307 182.26 126.164L206.237 111.086C206.376 110.999 206.531 110.94 206.693 110.914C206.855 110.887 207.02 110.892 207.18 110.929C207.34 110.966 207.491 111.034 207.625 111.13C207.758 111.225 207.871 111.346 207.958 111.485C208.045 111.624 208.104 111.779 208.131 111.941C208.157 112.103 208.152 112.268 208.115 112.428C208.078 112.588 208.01 112.739 207.915 112.872C207.819 113.006 207.698 113.119 207.559 113.206L183.582 128.285C183.384 128.408 183.155 128.472 182.921 128.472Z" fill="#093F68"/>
<path d="M288.709 266.635C292.829 266.635 296.169 263.296 296.169 259.177C296.169 255.058 292.829 251.719 288.709 251.719C284.589 251.719 281.249 255.058 281.249 259.177C281.249 263.296 284.589 266.635 288.709 266.635Z" fill="#093F68"/>
<path d="M176.958 208.379C176.69 208.376 176.43 208.286 176.217 208.124C176.004 207.961 175.849 207.735 175.775 207.477C175.7 207.22 175.711 206.945 175.805 206.694C175.899 206.444 176.072 206.23 176.297 206.084L182.123 202.418C182.261 202.316 182.418 202.245 182.586 202.207C182.753 202.17 182.926 202.167 183.094 202.199C183.262 202.232 183.422 202.298 183.563 202.395C183.705 202.492 183.825 202.616 183.916 202.762C184.007 202.907 184.067 203.069 184.093 203.238C184.118 203.408 184.108 203.58 184.064 203.746C184.02 203.911 183.942 204.066 183.836 204.2C183.729 204.334 183.596 204.445 183.445 204.525L177.619 208.192C177.421 208.315 177.191 208.38 176.958 208.379Z" fill="#093F68"/>
<path d="M311.314 221.674C311.105 221.674 310.9 221.621 310.716 221.521C310.533 221.421 310.378 221.276 310.266 221.1L291.154 190.869C290.977 190.589 290.918 190.251 290.991 189.928C291.063 189.605 291.261 189.324 291.541 189.147C291.82 188.97 292.159 188.912 292.482 188.984C292.804 189.057 293.085 189.255 293.262 189.534L312.374 219.741C312.462 219.879 312.521 220.034 312.549 220.195C312.577 220.356 312.573 220.522 312.537 220.682C312.501 220.841 312.434 220.993 312.34 221.127C312.246 221.26 312.126 221.375 311.987 221.462C311.786 221.591 311.553 221.665 311.314 221.674Z" fill="#DFEAEF"/>
<path d="M191.703 176.663C191.495 176.663 191.289 176.61 191.106 176.51C190.923 176.41 190.768 176.265 190.655 176.089L186.826 170.14C186.735 170.002 186.673 169.847 186.643 169.684C186.613 169.521 186.616 169.354 186.651 169.192C186.686 169.032 186.753 168.88 186.847 168.745C186.941 168.61 187.061 168.495 187.2 168.407L251.197 127.985C251.474 127.811 251.808 127.753 252.128 127.823C252.447 127.893 252.727 128.085 252.906 128.359L268.824 152.256C268.926 152.391 268.999 152.546 269.039 152.711C269.079 152.876 269.085 153.047 269.057 153.214C269.028 153.381 268.966 153.541 268.874 153.683C268.782 153.826 268.661 153.948 268.52 154.042C268.379 154.136 268.22 154.201 268.054 154.232C267.887 154.263 267.715 154.259 267.55 154.221C267.385 154.184 267.229 154.113 267.092 154.013C266.954 153.913 266.839 153.786 266.753 153.64L251.508 130.754L189.62 169.841L192.764 174.742C192.942 175.02 193.003 175.358 192.932 175.68C192.862 176.003 192.667 176.285 192.389 176.464C192.185 176.596 191.947 176.665 191.703 176.663Z" fill="#DFEAEF"/>
<path d="M222.629 207.843C222.458 207.842 222.289 207.807 222.132 207.738C221.975 207.669 221.834 207.569 221.718 207.444C221.494 207.202 221.375 206.881 221.386 206.552C221.398 206.222 221.54 205.911 221.781 205.685L271.094 159.539C271.336 159.313 271.657 159.191 271.988 159.202C272.32 159.212 272.633 159.354 272.859 159.595C273.086 159.837 273.207 160.158 273.197 160.489C273.186 160.82 273.045 161.133 272.803 161.36L223.477 207.506C223.247 207.721 222.944 207.842 222.629 207.843Z" fill="#093F68"/>
<path d="M263.959 229.931C263.744 229.93 263.534 229.874 263.347 229.768C263.204 229.689 263.078 229.582 262.975 229.454C262.873 229.326 262.798 229.179 262.752 229.021C262.707 228.864 262.694 228.699 262.712 228.536C262.731 228.373 262.781 228.216 262.861 228.072L291.915 176.439C292.08 176.151 292.353 175.94 292.674 175.854C292.994 175.767 293.336 175.812 293.624 175.977C293.912 176.142 294.122 176.415 294.209 176.736C294.295 177.056 294.251 177.398 294.086 177.686L265.019 229.319C264.91 229.504 264.755 229.657 264.569 229.764C264.383 229.871 264.173 229.928 263.959 229.931Z" fill="#093F68"/>
<path d="M243.949 187.888C243.741 187.889 243.536 187.838 243.353 187.74C243.171 187.642 243.015 187.5 242.901 187.327C241.64 185.223 239.941 183.415 237.92 182.024C235.899 180.634 233.603 179.695 231.187 179.27C224.575 178.147 216.279 180.829 208.994 186.441C208.82 186.578 208.613 186.667 208.394 186.697C208.174 186.728 207.951 186.7 207.746 186.616C207.545 186.536 207.368 186.406 207.232 186.238C207.097 186.069 207.007 185.869 206.973 185.655C206.525 183.391 205.443 181.3 203.853 179.626C202.263 177.953 200.23 176.765 197.991 176.202C195.686 175.671 193.293 175.658 190.983 176.162C188.673 176.667 186.503 177.677 184.63 179.12C184.497 179.217 184.347 179.287 184.187 179.326C184.028 179.364 183.862 179.371 183.7 179.346C183.537 179.32 183.382 179.263 183.242 179.177C183.102 179.091 182.98 178.979 182.883 178.846C182.69 178.58 182.609 178.25 182.658 177.925C182.707 177.601 182.882 177.308 183.145 177.112C185.321 175.452 187.838 174.292 190.514 173.716C193.19 173.141 195.96 173.163 198.627 173.782C201.004 174.407 203.192 175.604 204.999 177.27C206.806 178.935 208.178 181.018 208.994 183.336C216.479 178.01 224.675 175.628 231.586 176.8C234.345 177.281 236.969 178.348 239.28 179.929C241.592 181.511 243.537 183.57 244.984 185.967C245.105 186.155 245.173 186.373 245.181 186.596C245.189 186.82 245.136 187.041 245.029 187.238C244.922 187.434 244.764 187.598 244.572 187.713C244.379 187.827 244.16 187.887 243.936 187.888H243.949Z" fill="#093F68"/>
<path d="M228.292 212.47C227.995 212.47 227.708 212.364 227.482 212.171C216.017 202.517 199.001 208.005 198.789 208.055C198.476 208.158 198.136 208.133 197.841 207.986C197.547 207.838 197.323 207.581 197.217 207.269C197.164 207.114 197.143 206.949 197.154 206.785C197.165 206.621 197.208 206.461 197.281 206.314C197.354 206.167 197.455 206.035 197.579 205.927C197.703 205.82 197.847 205.737 198.003 205.685C198.752 205.448 216.504 199.711 229.053 210.262C229.251 210.426 229.394 210.647 229.461 210.895C229.529 211.143 229.518 211.405 229.431 211.647C229.343 211.888 229.184 212.097 228.973 212.244C228.763 212.392 228.512 212.47 228.255 212.47H228.292Z" fill="#093F68"/>
<path d="M302.469 235.144C302.153 235.145 301.848 235.025 301.616 234.81C301.385 234.595 301.243 234.299 301.221 233.984C301.193 233.206 301.001 232.442 300.657 231.744C300.313 231.045 299.825 230.427 299.225 229.931C297.154 228.222 293.449 227.536 289.046 228.047C288.841 228.07 288.633 228.042 288.442 227.966C288.251 227.889 288.081 227.766 287.949 227.608C287.817 227.45 287.726 227.261 287.684 227.059C287.643 226.857 287.652 226.648 287.711 226.451C288.309 224.474 288.458 222.388 288.148 220.346C287.837 218.303 287.076 216.356 285.918 214.645C284.76 212.934 283.235 211.503 281.454 210.456C279.673 209.409 277.681 208.772 275.623 208.591C275.292 208.561 274.986 208.401 274.773 208.146C274.56 207.892 274.458 207.562 274.487 207.232C274.517 206.901 274.677 206.595 274.932 206.383C275.187 206.17 275.516 206.067 275.847 206.097C278.124 206.294 280.335 206.967 282.336 208.07C284.337 209.174 286.085 210.684 287.467 212.504C288.849 214.324 289.835 216.413 290.36 218.637C290.885 220.861 290.939 223.17 290.518 225.416C293.612 225.254 297.891 225.578 300.81 227.997C301.672 228.708 302.376 229.591 302.877 230.59C303.377 231.588 303.663 232.681 303.716 233.797C303.728 233.961 303.708 234.125 303.656 234.281C303.604 234.437 303.521 234.581 303.414 234.705C303.306 234.829 303.175 234.931 303.027 235.004C302.88 235.077 302.72 235.12 302.556 235.131L302.469 235.144Z" fill="#093F68"/>
<path d="M290.056 236.391C289.752 236.394 289.457 236.285 289.227 236.085C288.997 235.885 288.848 235.608 288.809 235.306C288.428 232.713 287.27 230.295 285.489 228.372C283.708 226.448 281.386 225.109 278.829 224.53C278.668 224.496 278.516 224.431 278.38 224.338C278.245 224.244 278.129 224.126 278.04 223.988C277.951 223.85 277.89 223.696 277.86 223.534C277.831 223.372 277.833 223.207 277.868 223.046C277.902 222.885 277.968 222.733 278.061 222.598C278.154 222.462 278.273 222.347 278.411 222.258C278.549 222.168 278.703 222.107 278.865 222.078C279.026 222.048 279.192 222.051 279.353 222.086C282.403 222.789 285.169 224.396 287.291 226.697C289.412 228.998 290.789 231.885 291.241 234.982C291.284 235.309 291.195 235.64 290.994 235.902C290.793 236.164 290.496 236.335 290.169 236.378L290.056 236.391Z" fill="#093F68"/>
<path d="M285.216 127.05C280.964 126.073 276.555 126.001 272.273 126.839C267.992 127.677 263.935 129.406 260.366 131.914C249.874 139.06 243.437 149.686 238.622 160.499C238.447 160.902 238.414 161.352 238.528 161.776C238.642 162.2 238.896 162.573 239.248 162.835C239.601 163.097 240.032 163.231 240.471 163.217C240.91 163.203 241.331 163.041 241.666 162.757C245.33 159.304 249.96 157.05 254.939 156.296C264.695 155.124 268.774 159.215 268.774 159.215L285.216 127.05Z" fill="#F56132"/>
<path d="M240.406 164.503C239.726 164.498 239.065 164.275 238.522 163.867C237.92 163.446 237.486 162.826 237.297 162.116C237.107 161.407 237.175 160.653 237.487 159.988C241.329 151.358 247.816 138.948 259.667 130.879C263.386 128.261 267.62 126.462 272.086 125.602C276.553 124.742 281.152 124.84 285.578 125.89C285.752 125.943 285.913 126.034 286.048 126.155C286.184 126.277 286.291 126.427 286.362 126.595C286.434 126.762 286.467 126.944 286.461 127.126C286.455 127.308 286.409 127.486 286.326 127.649L269.884 159.814C269.795 159.991 269.665 160.145 269.504 160.262C269.344 160.379 269.157 160.456 268.961 160.487C268.766 160.516 268.568 160.498 268.381 160.435C268.195 160.372 268.026 160.266 267.888 160.125C267.888 160.125 264.021 156.496 255.089 157.631C250.359 158.333 245.962 160.481 242.502 163.78C241.913 164.265 241.169 164.522 240.406 164.503ZM278.529 127.524C272.293 127.524 266.203 129.415 261.064 132.949C249.75 140.644 243.487 152.655 239.757 160.998C239.687 161.146 239.673 161.315 239.716 161.472C239.76 161.63 239.858 161.767 239.994 161.859C240.111 161.963 240.262 162.021 240.418 162.021C240.575 162.021 240.726 161.963 240.842 161.859C244.68 158.218 249.553 155.857 254.789 155.099C262 154.226 266.329 156.109 268.325 157.369L283.37 127.96C281.772 127.674 280.152 127.528 278.529 127.524Z" fill="#093F68"/>
<path d="M320.869 153.079C323.092 156.831 324.501 161.008 325.004 165.34C325.507 169.672 325.093 174.061 323.789 178.222C320.171 190.395 311.987 199.749 303.155 207.618C302.827 207.919 302.405 208.097 301.96 208.123C301.516 208.148 301.076 208.02 300.715 207.759C300.355 207.498 300.095 207.121 299.98 206.691C299.866 206.261 299.903 205.804 300.086 205.398C302.263 200.864 302.999 195.771 302.194 190.806C300.348 181.153 295.221 178.509 295.221 178.509L320.869 153.079Z" fill="#F56132"/>
<path d="M301.895 209.402C301.212 209.396 300.548 209.173 299.999 208.766C299.406 208.346 298.978 207.733 298.789 207.032C298.6 206.33 298.661 205.585 298.963 204.924C301.053 200.625 301.763 195.786 300.997 191.068C299.313 182.226 294.759 179.669 294.672 179.644C294.497 179.553 294.347 179.422 294.232 179.262C294.118 179.102 294.043 178.917 294.014 178.722C293.985 178.528 294.002 178.329 294.064 178.142C294.127 177.956 294.232 177.786 294.373 177.648L320.021 152.218C320.151 152.088 320.307 151.988 320.48 151.926C320.652 151.863 320.836 151.84 321.019 151.856C321.201 151.874 321.377 151.931 321.534 152.023C321.692 152.116 321.827 152.242 321.93 152.393C324.265 156.293 325.748 160.643 326.279 165.158C326.81 169.673 326.378 174.248 325.011 178.584C320.932 192.303 311.077 202.28 304.016 208.516C303.445 209.067 302.688 209.384 301.895 209.402ZM297.179 178.384C298.976 179.906 302.082 183.46 303.417 190.594C304.277 195.813 303.506 201.17 301.209 205.935C301.138 206.073 301.122 206.233 301.164 206.383C301.205 206.533 301.302 206.663 301.433 206.745C301.556 206.852 301.713 206.911 301.876 206.911C302.039 206.911 302.196 206.852 302.319 206.745C309.143 200.659 318.674 191.043 322.579 177.935C324.89 170.362 324.184 162.189 320.608 155.124L297.179 178.384Z" fill="#093F68"/>
<path d="M335.341 140.183C320.857 160.001 306.885 172.373 293.524 180.018L267.876 161.31C271.119 146.344 278.654 129.195 293.138 109.39C298.354 102.195 304.576 95.7859 311.613 90.3576C331.935 74.7677 351.658 73.5953 351.658 73.5953C351.658 73.5953 356.548 92.7397 347.853 116.835C344.814 125.173 340.601 133.035 335.341 140.183Z" fill="#FFBC0E"/>
<path d="M293.524 181.265C293.259 181.263 293.001 181.175 292.788 181.016L267.14 162.308C266.948 162.168 266.801 161.976 266.715 161.755C266.629 161.534 266.607 161.293 266.653 161.061C270.283 144.286 278.617 127.15 292.127 108.679C297.414 101.393 303.715 94.9003 310.84 89.3972C331.236 73.745 350.76 72.423 351.57 72.3856C351.854 72.3766 352.132 72.4644 352.358 72.6344C352.585 72.8044 352.747 73.0466 352.818 73.321C353.018 74.1067 357.696 93.1014 348.976 117.284C345.903 125.75 341.631 133.73 336.289 140.981C322.791 159.464 308.981 172.61 294.098 181.153C293.918 181.235 293.722 181.274 293.524 181.265ZM269.273 160.749L293.599 178.521C307.908 170.14 321.244 157.319 334.33 139.447C339.524 132.383 343.683 124.613 346.68 116.374C351.594 103.137 352.97 88.8482 350.672 74.9174C336.7 76.9658 323.502 82.6135 312.374 91.3054C305.432 96.6668 299.29 102.991 294.136 110.088C281.049 127.985 272.916 144.573 269.273 160.749Z" fill="#093F68"/>
<path d="M288.447 191.879L258.108 169.716L267.901 161.298L293.499 179.993L288.447 191.879Z" fill="#093F68"/>
<path d="M288.459 193.126C288.195 193.127 287.937 193.044 287.723 192.889L257.372 170.726C257.224 170.611 257.103 170.466 257.015 170.3C256.927 170.135 256.874 169.953 256.86 169.766C256.853 169.578 256.888 169.39 256.964 169.217C257.04 169.044 257.153 168.891 257.297 168.768L267.09 160.35C267.311 160.173 267.586 160.076 267.869 160.076C268.153 160.076 268.428 160.173 268.649 160.35L294.235 179.058C294.463 179.224 294.628 179.462 294.702 179.734C294.777 180.006 294.758 180.295 294.647 180.554L289.657 192.44C289.582 192.613 289.47 192.767 289.327 192.89C289.184 193.013 289.016 193.102 288.834 193.151C288.708 193.166 288.582 193.157 288.459 193.126ZM260.116 169.629L287.923 189.946L291.965 180.417L267.975 162.882L260.116 169.629Z" fill="#093F68"/>
<path d="M315.555 136.541C323.058 136.541 329.14 130.46 329.14 122.959C329.14 115.458 323.058 109.377 315.555 109.377C308.052 109.377 301.97 115.458 301.97 122.959C301.97 130.46 308.052 136.541 315.555 136.541Z" fill="#EC4343"/>
<path d="M315.53 137.788C312.198 137.782 308.964 136.653 306.352 134.585C303.739 132.517 301.899 129.629 301.129 126.388C300.358 123.146 300.702 119.74 302.105 116.718C303.507 113.695 305.887 111.234 308.86 109.729C311.833 108.224 315.227 107.764 318.494 108.423C321.76 109.082 324.71 110.822 326.867 113.361C329.024 115.901 330.262 119.093 330.383 122.423C330.503 125.752 329.499 129.025 327.531 131.714C326.153 133.603 324.347 135.138 322.261 136.194C320.175 137.249 317.868 137.796 315.53 137.788ZM315.617 110.674C312.684 110.673 309.846 111.717 307.613 113.621C305.381 115.524 303.901 118.161 303.439 121.057C302.977 123.954 303.564 126.92 305.094 129.422C306.624 131.925 308.997 133.8 311.786 134.71C314.575 135.621 317.597 135.506 320.309 134.388C323.022 133.27 325.246 131.222 326.583 128.611C327.919 126 328.281 122.998 327.601 120.144C326.922 117.291 325.248 114.773 322.878 113.044C320.769 111.506 318.227 110.677 315.617 110.674Z" fill="#093F68"/>
<path d="M347.853 116.798L311.675 90.3202C331.997 74.7303 351.72 73.5579 351.72 73.5579C351.72 73.5579 356.548 92.7023 347.853 116.798Z" fill="#F56132"/>
<path d="M347.853 118.045C347.589 118.041 347.333 117.959 347.117 117.808L310.877 91.3304C310.722 91.2142 310.596 91.0636 310.51 90.8904C310.423 90.7172 310.378 90.5262 310.378 90.3326C310.378 90.139 310.423 89.948 310.51 89.7748C310.596 89.6017 310.722 89.451 310.877 89.3349C331.274 73.6826 350.797 72.3606 351.608 72.3232C351.891 72.3142 352.169 72.402 352.396 72.572C352.623 72.742 352.785 72.9842 352.855 73.2586C353.055 74.0443 357.733 93.039 349.013 117.222C348.949 117.404 348.843 117.568 348.705 117.702C348.566 117.837 348.399 117.937 348.215 117.995C348.097 118.03 347.975 118.046 347.853 118.045ZM313.709 90.3077L347.229 114.802C351.693 101.996 352.877 88.2744 350.672 74.8924C337.256 76.8601 324.547 82.1602 313.709 90.3077Z" fill="#093F68"/>
<path d="M302.6 145.427C303.518 144.17 303.246 142.408 301.992 141.492C300.738 140.575 298.976 140.851 298.057 142.108L268.165 183C267.246 184.257 267.518 186.019 268.773 186.935C270.027 187.852 271.789 187.576 272.708 186.319L302.6 145.427Z" fill="#FFBC0E"/>
<path d="M270.446 188.723C269.697 188.72 268.963 188.51 268.326 188.116C267.689 187.723 267.173 187.161 266.835 186.493C266.497 185.824 266.35 185.076 266.41 184.33C266.471 183.583 266.736 182.868 267.177 182.263L297.117 141.368C297.426 140.933 297.819 140.565 298.274 140.287C298.728 140.008 299.234 139.824 299.762 139.746C300.557 139.618 301.372 139.73 302.104 140.068C302.835 140.405 303.449 140.952 303.868 141.64C304.287 142.328 304.492 143.125 304.456 143.929C304.42 144.734 304.145 145.509 303.666 146.157L273.726 187.052C273.09 187.922 272.135 188.505 271.069 188.673C270.863 188.702 270.654 188.719 270.446 188.723ZM300.386 142.191H300.136C299.932 142.224 299.737 142.298 299.561 142.407C299.386 142.516 299.233 142.659 299.113 142.827L269.173 183.722C269.052 183.887 268.964 184.075 268.915 184.274C268.866 184.474 268.857 184.681 268.888 184.883C268.92 185.086 268.991 185.281 269.097 185.456C269.204 185.631 269.344 185.784 269.51 185.905C269.846 186.151 270.266 186.254 270.677 186.19C271.089 186.127 271.459 185.903 271.706 185.568L301.646 144.673C301.819 144.441 301.925 144.166 301.951 143.877C301.977 143.589 301.922 143.299 301.793 143.04C301.663 142.781 301.464 142.563 301.218 142.411C300.971 142.259 300.688 142.178 300.398 142.178L300.386 142.191Z" fill="#093F68"/>
<path d="M321.506 131.764C321.237 131.764 320.975 131.676 320.76 131.514C320.545 131.353 320.388 131.126 320.312 130.868C320.236 130.61 320.246 130.335 320.34 130.082C320.433 129.83 320.606 129.615 320.832 129.469C322.119 128.373 323.074 126.939 323.589 125.329C325.049 121.388 322.03 118.008 321.905 117.846C321.68 117.603 321.561 117.28 321.574 116.949C321.587 116.618 321.73 116.306 321.974 116.081C322.217 115.856 322.539 115.737 322.87 115.75C323.201 115.763 323.514 115.906 323.739 116.149C323.913 116.337 327.93 120.764 325.922 126.127C325.24 128.249 323.936 130.117 322.179 131.49C321.987 131.646 321.753 131.742 321.506 131.764Z" fill="white"/>
<path d="M316.715 134.034C316.384 134.054 316.059 133.942 315.811 133.722C315.563 133.502 315.413 133.193 315.393 132.862C315.373 132.531 315.485 132.206 315.705 131.958C315.925 131.71 316.235 131.56 316.566 131.54C317.375 131.397 318.166 131.162 318.923 130.841C319.222 130.729 319.553 130.736 319.848 130.86C320.142 130.984 320.377 131.217 320.505 131.509C320.633 131.802 320.644 132.132 320.535 132.433C320.427 132.733 320.207 132.98 319.921 133.124C318.946 133.542 317.924 133.844 316.877 134.022L316.715 134.034Z" fill="white"/>
<path d="M176.858 155.685C176.587 155.69 176.322 155.606 176.102 155.447C175.883 155.287 175.722 155.061 175.643 154.801C175.564 154.542 175.571 154.264 175.665 154.009C175.758 153.755 175.932 153.538 176.159 153.391L181.948 149.562C182.085 149.47 182.238 149.407 182.399 149.375C182.56 149.343 182.726 149.343 182.888 149.376C183.049 149.408 183.202 149.472 183.338 149.564C183.474 149.656 183.591 149.774 183.682 149.911C183.862 150.186 183.927 150.521 183.862 150.843C183.796 151.166 183.606 151.449 183.333 151.632L177.544 155.473C177.341 155.61 177.103 155.683 176.858 155.685Z" fill="#DFEAEF"/>
<path d="M179.952 159.689C179.748 159.689 179.546 159.639 179.366 159.544C179.185 159.448 179.031 159.309 178.916 159.14C178.825 159.003 178.762 158.85 178.73 158.689C178.698 158.528 178.698 158.362 178.731 158.201C178.763 158.04 178.827 157.886 178.919 157.75C179.011 157.614 179.129 157.497 179.266 157.406L184.443 153.964C184.719 153.781 185.057 153.714 185.382 153.78C185.707 153.845 185.993 154.037 186.177 154.313C186.361 154.59 186.427 154.927 186.361 155.253C186.296 155.578 186.104 155.863 185.828 156.047L180.65 159.489C180.443 159.624 180.199 159.693 179.952 159.689Z" fill="#DFEAEF"/>
<path d="M182.809 163.717C182.542 163.715 182.283 163.628 182.07 163.468C181.857 163.308 181.7 163.084 181.624 162.829C181.547 162.574 181.554 162.301 181.644 162.05C181.733 161.799 181.901 161.584 182.123 161.435L187.3 157.993C187.435 157.891 187.59 157.817 187.755 157.777C187.92 157.737 188.091 157.731 188.258 157.76C188.426 157.788 188.585 157.85 188.728 157.943C188.87 158.035 188.992 158.155 189.087 158.296C189.181 158.437 189.245 158.596 189.276 158.763C189.307 158.929 189.304 159.101 189.266 159.266C189.228 159.431 189.157 159.587 189.057 159.724C188.957 159.861 188.83 159.977 188.684 160.063L183.507 163.505C183.301 163.644 183.057 163.718 182.809 163.717Z" fill="#DFEAEF"/>
<path d="M204.253 142.465C203.985 142.462 203.725 142.372 203.512 142.21C203.299 142.047 203.144 141.821 203.07 141.563C202.996 141.306 203.007 141.031 203.101 140.78C203.195 140.53 203.367 140.316 203.592 140.17L242.015 115.813C242.153 115.725 242.308 115.666 242.469 115.638C242.631 115.61 242.796 115.614 242.956 115.65C243.116 115.685 243.267 115.752 243.401 115.847C243.535 115.941 243.649 116.061 243.737 116.199C243.824 116.338 243.884 116.492 243.912 116.653C243.94 116.815 243.936 116.98 243.9 117.14C243.864 117.3 243.797 117.451 243.702 117.585C243.608 117.719 243.488 117.833 243.35 117.92L204.927 142.278C204.725 142.403 204.491 142.468 204.253 142.465Z" fill="#DFEAEF"/>
<path d="M265.718 241.13C265.631 241.143 265.542 241.143 265.456 241.13C265.133 241.059 264.852 240.862 264.675 240.584C264.497 240.306 264.437 239.969 264.507 239.646C266.391 230.916 258.158 225.989 257.808 225.777C257.537 225.605 257.342 225.334 257.266 225.022C257.189 224.709 257.237 224.379 257.398 224.101C257.559 223.822 257.821 223.617 258.13 223.527C258.439 223.437 258.771 223.471 259.056 223.62C259.156 223.682 269.211 229.669 266.928 240.182C266.861 240.453 266.705 240.693 266.486 240.865C266.267 241.037 265.996 241.13 265.718 241.13Z" fill="#093F68"/>
</svg>
